IKResults
version=1
nRows=11
nColumns=40
inDegrees=yes

Units are S.I. units (second, meters, Newtons, ...)
Angles are in degrees.

endheader
time	pelvis_tilt	pelvis_list	pelvis_rotation	pelvis_tx	pelvis_ty	pelvis_tz	hip_flexion_r	hip_adduction_r	hip_rotation_r	knee_angle_r	knee_angle_r_beta	ankle_angle_r	subtalar_angle_r	mtp_angle_r	hip_flexion_l	hip_adduction_l	hip_rotation_l	knee_angle_l	knee_angle_l_beta	ankle_angle_l	subtalar_angle_l	mtp_angle_l	lumbar_extension	lumbar_bending	lumbar_rotation	arm_flex_r	arm_add_r	arm_rot_r	elbow_flex_r	pro_sup_r	wrist_flex_r	wrist_dev_r	arm_flex_l	arm_add_l	arm_rot_l	elbow_flex_l	pro_sup_l	wrist_flex_l	wrist_dev_l
      3.06000000	     15.52421964	     -3.74904698	      8.44209128	      0.64055051	      0.94785129	      1.01969262	    -10.79936335	      7.13326268	    -21.99812061	    -12.06346779	     -0.21054723	      4.58082039	      8.83885593	     -6.52482658	    -22.35051080	      9.13501255	     -0.51551010	    -36.18164576	     -0.63148885	      6.01607101	     15.29852714	     -3.44584016	    -20.28360882	      5.66855616	     -4.42952079	     -4.92020609	     -9.99158438	      3.73768040	     29.87943250	     89.95437384	      0.00000000	      0.00000000	      5.55623883	      9.51253425	      6.07043470	     25.17521318	     89.95437384	      0.00000000	      0.00000000
      3.07000000	     15.63841844	     -3.61996935	      8.21393745	      0.64645178	      0.94828006	      1.02106144	    -11.43188290	      7.09450585	    -21.93938176	    -11.92997536	     -0.20821735	      4.79884680	      9.11583586	     -6.50820712	    -21.81403081	      9.02219903	     -0.12652358	    -36.80008203	     -0.64228260	      6.68849483	     16.09727806	     -3.24488735	    -20.44045450	      5.48651348	     -4.08505177	     -4.68347286	    -10.03949239	      3.87840987	     29.75120978	     89.95437384	      0.00000000	      0.00000000	      5.18726362	      9.51495342	      6.34899941	     24.55414581	     89.95437384	      0.00000000	      0.00000000
      3.08000000	     15.69471358	     -3.52138838	      7.93426180	      0.65226960	      0.94867519	      1.02253747	    -11.99683966	      7.06338097	    -22.03348025	    -11.76850272	     -0.20539912	      5.04689959	      9.21003166	     -6.49393274	    -21.24326133	      8.90483475	      0.24923584	    -37.20053667	     -0.64927185	      7.27605889	     16.57699966	     -3.12415009	    -20.54255026	      5.29221020	     -3.65307658	     -4.48498367	    -10.08364759	      3.96430786	     29.65036658	     89.95437384	      0.00000000	      0.00000000	      4.78083085	      9.55116623	      6.46229469	     24.07809983	     89.95437384	      0.00000000	      0.00000000
      3.09000000	     15.67890184	     -3.45546897	      7.63588874	      0.65778469	      0.94901386	      1.02396774	    -12.46819210	      7.08509709	    -21.58491654	    -11.61030136	     -0.20263799	      5.19060741	      9.61539800	     -6.47374529	    -20.50528266	      8.77126966	      0.57239747	    -37.63252358	     -0.65681144	      8.03178470	     17.24705817	     -2.85449596	    -20.59450878	      5.11792205	     -3.26105028	     -4.25726526	    -10.13901277	      4.13670136	     29.61906360	     89.95437384	      0.00000000	      0.00000000	      4.42233343	      9.55171000	      6.75368183	     23.51938430	     89.95437384	      0.00000000	      0.00000000
      3.10000000	     15.61480722	     -3.35937783	      7.33793167	      0.66338442	      0.94922337	      1.02538327	    -12.86744788	      7.05212335	    -21.41681036	    -11.42190228	     -0.19934980	      5.38500821	      9.74495793	     -6.44861220	    -19.76458617	      8.61949919	      0.94358346	    -37.81645444	     -0.66002164	      8.69763527	     17.59255648	     -2.61284752	    -20.56697298	      4.90610661	     -2.88491143	     -4.06607634	    -10.19858908	      4.13465508	     29.60691322	     89.95437384	      0.00000000	      0.00000000	      3.96570898	      9.57292764	      6.98587357	     23.09006910	     89.95437384	      0.00000000	      0.00000000
      3.11000000	     15.57095958	     -3.26381206	      7.08363461	      0.66890886	      0.94950691	      1.02664346	    -13.28074467	      7.00789816	    -21.25984651	    -11.33647330	     -0.19785878	      5.59525138	      9.79192910	     -6.41341782	    -19.03715489	      8.49912329	      1.31508597	    -37.86142038	     -0.66080645	      9.26231785	     17.80810844	     -2.40599152	    -20.55235863	      4.72304240	     -2.51822330	     -3.91890043	    -10.25617483	      4.17854677	     29.57342957	     89.95437384	      0.00000000	      0.00000000	      3.52652282	      9.55488745	      7.14787993	     22.63514612	     89.95437384	      0.00000000	      0.00000000
      3.12000000	     15.49932422	     -3.15025925	      6.81767411	      0.67434111	      0.94972609	      1.02781637	    -13.62948400	      6.93589967	    -21.04238741	    -11.25923134	     -0.19651066	      5.82929971	      9.81453906	     -6.37410212	    -18.27004695	      8.30457944	      1.60288160	    -37.79657638	     -0.65967470	      9.84766991	     17.96630887	     -2.21896452	    -20.50605477	      4.50283547	     -2.19167084	     -3.76861620	    -10.31673936	      4.18237275	     29.59837016	     89.95437384	      0.00000000	      0.00000000	      3.02760201	      9.55652883	      7.29938593	     22.29655042	     89.95437384	      0.00000000	      0.00000000
      3.13000000	     15.42506829	     -3.03783793	      6.50786942	      0.67953834	      0.94996836	      1.02912392	    -13.98461545	      6.86454647	    -20.71968562	    -11.16320717	     -0.19483472	      5.95761797	      9.87456561	     -6.32536368	    -17.50911587	      8.10250659	      1.93115264	    -37.60505596	     -0.65633204	     10.55511192	     18.00057744	     -2.00648418	    -20.48663753	      4.27344688	     -1.84618942	     -3.59617557	    -10.33602003	      4.08943794	     29.66091851	     89.95437384	      0.00000000	      0.00000000	      2.55458308	      9.57109357	      7.51614994	     22.00441201	     89.95437384	      0.00000000	      0.00000000
      3.14000000	     15.33623850	     -2.86486972	      6.27650355	      0.68472440	      0.95011035	      1.03005810	    -14.25840602	      6.71623687	    -20.55215929	    -11.12011231	     -0.19408257	      6.16992843	      9.80009434	     -6.27614952	    -16.67830829	      7.85567400	      2.25092992	    -37.34705449	     -0.65182907	     11.05177728	     17.93353349	     -1.85477286	    -20.45197623	      4.01890606	     -1.59944130	     -3.46690461	    -10.38795686	      3.99385983	     29.79113734	     89.95437384	      0.00000000	      0.00000000	      2.01854315	      9.56900498	      7.68725503	     21.81274898	     89.95437384	      0.00000000	      0.00000000
      3.15000000	     15.25631618	     -2.74466439	      6.04455564	      0.68970742	      0.95021202	      1.03125714	    -14.45171736	      6.60809253	    -20.32848554	    -11.34941799	     -0.19808471	      6.21178496	      9.61667385	     -6.19486491	    -15.77896758	      7.65176743	      2.39137802	    -37.15503885	     -0.64847776	     11.22122807	     17.64621772	     -1.75934685	    -20.45203030	      3.78470526	     -1.38041676	     -3.32370744	    -10.40864098	      3.90971173	     30.04119091	     89.95437384	      0.00000000	      0.00000000	      1.43708043	      9.64464431	      7.77819031	     21.72924906	     89.95437384	      0.00000000	      0.00000000
      3.16000000	     15.63189310	     -2.18005069	      5.30368735	      0.69524427	      0.95124266	      1.03215827	    -15.56297446	      6.04503267	    -19.02283066	    -10.83973554	     -0.18918908	      6.62915365	      9.45850974	     -5.89845079	    -16.01158337	      6.71093955	      2.86669172	    -35.84343761	     -0.62558600	     11.96245520	     17.65442950	     -0.42273632	    -20.97030256	      3.04787006	     -0.71597294	     -3.22091867	    -10.44624143	      3.47408760	     30.19609950	     89.95437384	      0.00000000	      0.00000000	      1.02373114	      9.36439028	      9.05595118	     21.50822939	     89.95437384	      0.00000000	      0.00000000
